<svg width="16" height="12" viewBox="0 0 16 12" fill="none" xmlns="http://www.w3.org/2000/svg">
<path d="M13.1417 7.14286C13.1417 7.125 13.1417 7.10714 13.1328 7.08929L7.99888 2.85714L2.86496 7.08929C2.86496 7.10714 2.85603 7.125 2.85603 7.14286V11.4286C2.85603 11.7411 3.11496 12 3.42746 12H6.85603V8.57143H9.14174V12H12.5703C12.8828 12 13.1417 11.7411 13.1417 11.4286V7.14286ZM15.1328 6.52679C15.231 6.41071 15.2132 6.22321 15.0971 6.125L13.1417 4.5V0.857142C13.1417 0.696428 13.0167 0.571428 12.856 0.571428H11.1417C10.981 0.571428 10.856 0.696428 10.856 0.857142V2.59821L8.67746 0.776785C8.30246 0.464285 7.69531 0.464285 7.32031 0.776785L0.90067 6.125C0.784598 6.22321 0.766741 6.41071 0.864955 6.52679L1.41853 7.1875C1.46317 7.24107 1.5346 7.27679 1.60603 7.28571C1.68638 7.29464 1.75781 7.26786 1.82031 7.22321L7.99888 2.07143L14.1775 7.22321C14.231 7.26786 14.2935 7.28571 14.365 7.28571C14.3739 7.28571 14.3828 7.28571 14.3917 7.28571C14.4632 7.27679 14.5346 7.24107 14.5792 7.1875L15.1328 6.52679Z" fill="#F6F9FC"/>
</svg>
