<svg width="492" height="347" viewBox="0 0 492 347" fill="none" xmlns="http://www.w3.org/2000/svg">
<path d="M6.50684 6.90332C6.50684 7.49577 6.33968 7.98031 6.00537 8.35693C5.67529 8.73356 5.20557 8.98535 4.59619 9.1123V9.16309C5.34098 9.25618 5.89323 9.49316 6.25293 9.87402C6.61263 10.2549 6.79248 10.7542 6.79248 11.3721C6.79248 12.2565 6.48568 12.9378 5.87207 13.416C5.25846 13.89 4.38672 14.127 3.25684 14.127C2.76595 14.127 2.31527 14.0889 1.90479 14.0127C1.49854 13.9408 1.10286 13.8117 0.717773 13.6255V12.6226C1.11979 12.8215 1.5472 12.9738 2 13.0796C2.45703 13.1812 2.88867 13.2319 3.29492 13.2319C4.89876 13.2319 5.70068 12.6035 5.70068 11.3467C5.70068 10.221 4.81624 9.6582 3.04736 9.6582H2.1333V8.75049H3.06006C3.78369 8.75049 4.3571 8.5918 4.78027 8.27441C5.20345 7.9528 5.41504 7.50846 5.41504 6.94141C5.41504 6.48861 5.25846 6.13314 4.94531 5.875C4.63639 5.61686 4.21533 5.48779 3.68213 5.48779C3.27588 5.48779 2.8929 5.54281 2.5332 5.65283C2.1735 5.76286 1.76302 5.96598 1.30176 6.26221L0.768555 5.55127C1.14941 5.25081 1.5874 5.01595 2.08252 4.84668C2.58187 4.67318 3.10661 4.58643 3.65674 4.58643C4.55811 4.58643 5.25846 4.79378 5.75781 5.2085C6.25716 5.61898 6.50684 6.18392 6.50684 6.90332ZM14.3462 9.34717C14.3462 10.951 14.0923 12.1486 13.5845 12.9399C13.0809 13.7313 12.3086 14.127 11.2676 14.127C10.2689 14.127 9.50928 13.7228 8.98877 12.9146C8.46826 12.1021 8.20801 10.9129 8.20801 9.34717C8.20801 7.73063 8.4598 6.53092 8.96338 5.74805C9.46696 4.96517 10.235 4.57373 11.2676 4.57373C12.2747 4.57373 13.0386 4.9821 13.5591 5.79883C14.0838 6.61556 14.3462 7.79834 14.3462 9.34717ZM9.27441 9.34717C9.27441 10.6971 9.43311 11.681 9.75049 12.2988C10.0679 12.9124 10.5736 13.2192 11.2676 13.2192C11.9701 13.2192 12.4779 12.9082 12.791 12.2861C13.1084 11.6598 13.2671 10.6802 13.2671 9.34717C13.2671 8.01416 13.1084 7.03874 12.791 6.4209C12.4779 5.79883 11.9701 5.48779 11.2676 5.48779C10.5736 5.48779 10.0679 5.7946 9.75049 6.4082C9.43311 7.01758 9.27441 7.99723 9.27441 9.34717Z" fill="#8898AA"/>
<path d="M6.85596 114H0.755859V113.092L3.19971 110.636C3.9445 109.882 4.43538 109.345 4.67236 109.023C4.90934 108.702 5.08708 108.389 5.20557 108.084C5.32406 107.779 5.3833 107.451 5.3833 107.1C5.3833 106.605 5.23307 106.214 4.93262 105.926C4.63216 105.634 4.21533 105.488 3.68213 105.488C3.29704 105.488 2.93099 105.551 2.58398 105.678C2.24121 105.805 1.85824 106.036 1.43506 106.37L0.876465 105.653C1.73128 104.942 2.66227 104.586 3.66943 104.586C4.54118 104.586 5.22461 104.811 5.71973 105.259C6.21484 105.704 6.4624 106.302 6.4624 107.056C6.4624 107.644 6.29736 108.226 5.96729 108.801C5.63721 109.377 5.01937 110.105 4.11377 110.985L2.08252 112.972V113.022H6.85596V114ZM14.3462 109.347C14.3462 110.951 14.0923 112.149 13.5845 112.94C13.0809 113.731 12.3086 114.127 11.2676 114.127C10.2689 114.127 9.50928 113.723 8.98877 112.915C8.46826 112.102 8.20801 110.913 8.20801 109.347C8.20801 107.731 8.4598 106.531 8.96338 105.748C9.46696 104.965 10.235 104.574 11.2676 104.574C12.2747 104.574 13.0386 104.982 13.5591 105.799C14.0838 106.616 14.3462 107.798 14.3462 109.347ZM9.27441 109.347C9.27441 110.697 9.43311 111.681 9.75049 112.299C10.0679 112.912 10.5736 113.219 11.2676 113.219C11.9701 113.219 12.4779 112.908 12.791 112.286C13.1084 111.66 13.2671 110.68 13.2671 109.347C13.2671 108.014 13.1084 107.039 12.791 106.421C12.4779 105.799 11.9701 105.488 11.2676 105.488C10.5736 105.488 10.0679 105.795 9.75049 106.408C9.43311 107.018 9.27441 107.997 9.27441 109.347Z" fill="#8898AA"/>
<path d="M4.65967 214H3.63135V207.386C3.63135 206.836 3.64827 206.315 3.68213 205.824C3.59326 205.913 3.49382 206.006 3.38379 206.104C3.27376 206.201 2.77018 206.613 1.87305 207.341L1.31445 206.618L3.771 204.72H4.65967V214ZM14.3462 209.347C14.3462 210.951 14.0923 212.149 13.5845 212.94C13.0809 213.731 12.3086 214.127 11.2676 214.127C10.2689 214.127 9.50928 213.723 8.98877 212.915C8.46826 212.102 8.20801 210.913 8.20801 209.347C8.20801 207.731 8.4598 206.531 8.96338 205.748C9.46696 204.965 10.235 204.574 11.2676 204.574C12.2747 204.574 13.0386 204.982 13.5591 205.799C14.0838 206.616 14.3462 207.798 14.3462 209.347ZM9.27441 209.347C9.27441 210.697 9.43311 211.681 9.75049 212.299C10.0679 212.912 10.5736 213.219 11.2676 213.219C11.9701 213.219 12.4779 212.908 12.791 212.286C13.1084 211.66 13.2671 210.68 13.2671 209.347C13.2671 208.014 13.1084 207.039 12.791 206.421C12.4779 205.799 11.9701 205.488 11.2676 205.488C10.5736 205.488 10.0679 205.795 9.75049 206.408C9.43311 207.018 9.27441 207.997 9.27441 209.347Z" fill="#8898AA"/>
<path d="M14.3462 309.347C14.3462 310.951 14.0923 312.149 13.5845 312.94C13.0809 313.731 12.3086 314.127 11.2676 314.127C10.2689 314.127 9.50928 313.723 8.98877 312.915C8.46826 312.102 8.20801 310.913 8.20801 309.347C8.20801 307.731 8.4598 306.531 8.96338 305.748C9.46696 304.965 10.235 304.574 11.2676 304.574C12.2747 304.574 13.0386 304.982 13.5591 305.799C14.0838 306.616 14.3462 307.798 14.3462 309.347ZM9.27441 309.347C9.27441 310.697 9.43311 311.681 9.75049 312.299C10.0679 312.912 10.5736 313.219 11.2676 313.219C11.9701 313.219 12.4779 312.908 12.791 312.286C13.1084 311.66 13.2671 310.68 13.2671 309.347C13.2671 308.014 13.1084 307.039 12.791 306.421C12.4779 305.799 11.9701 305.488 11.2676 305.488C10.5736 305.488 10.0679 305.795 9.75049 306.408C9.43311 307.018 9.27441 307.997 9.27441 309.347Z" fill="#8898AA"/>
<path d="M59.1719 345.444C58.7741 345.444 58.4609 345.387 58.2324 345.272V344.352C58.5329 344.437 58.846 344.479 59.1719 344.479C59.5908 344.479 59.9082 344.352 60.124 344.098C60.3441 343.844 60.4541 343.478 60.4541 343V333.72H61.5332V342.911C61.5332 343.715 61.3301 344.337 60.9238 344.777C60.5176 345.222 59.9336 345.444 59.1719 345.444ZM64.834 336.043V340.556C64.834 341.123 64.9631 341.546 65.2212 341.826C65.4793 342.105 65.8835 342.245 66.4336 342.245C67.1615 342.245 67.6925 342.046 68.0269 341.648C68.3654 341.25 68.5347 340.601 68.5347 339.699V336.043H69.5884V343H68.7188L68.5664 342.067H68.5093C68.2935 342.41 67.993 342.672 67.6079 342.854C67.2271 343.036 66.7912 343.127 66.3003 343.127C65.4539 343.127 64.8192 342.926 64.396 342.524C63.9771 342.122 63.7676 341.479 63.7676 340.594V336.043H64.834ZM72.8828 343H71.8291V333.123H72.8828V343Z" fill="#8898AA"/>
<path d="M144.775 343L143.62 340.048H139.9L138.758 343H137.666L141.335 333.682H142.243L145.893 343H144.775ZM143.284 339.077L142.205 336.202C142.065 335.838 141.921 335.391 141.773 334.862C141.68 335.269 141.547 335.715 141.373 336.202L140.281 339.077H143.284ZM148 336.043V340.556C148 341.123 148.129 341.546 148.387 341.826C148.645 342.105 149.049 342.245 149.6 342.245C150.327 342.245 150.859 342.046 151.193 341.648C151.531 341.25 151.701 340.601 151.701 339.699V336.043H152.754V343H151.885L151.732 342.067H151.675C151.459 342.41 151.159 342.672 150.774 342.854C150.393 343.036 149.957 343.127 149.466 343.127C148.62 343.127 147.985 342.926 147.562 342.524C147.143 342.122 146.934 341.479 146.934 340.594V336.043H148ZM160.689 336.043V336.709L159.4 336.862C159.519 337.01 159.625 337.205 159.718 337.446C159.811 337.683 159.857 337.951 159.857 338.252C159.857 338.933 159.625 339.477 159.159 339.883C158.694 340.29 158.055 340.493 157.242 340.493C157.035 340.493 156.84 340.476 156.658 340.442C156.21 340.679 155.985 340.977 155.985 341.337C155.985 341.527 156.064 341.669 156.22 341.762C156.377 341.851 156.646 341.896 157.026 341.896H158.258C159.011 341.896 159.589 342.054 159.991 342.372C160.397 342.689 160.6 343.15 160.6 343.755C160.6 344.526 160.291 345.112 159.673 345.514C159.056 345.92 158.154 346.123 156.969 346.123C156.059 346.123 155.357 345.954 154.862 345.615C154.371 345.277 154.125 344.799 154.125 344.181C154.125 343.757 154.261 343.391 154.532 343.083C154.803 342.774 155.183 342.564 155.674 342.454C155.497 342.374 155.346 342.249 155.224 342.08C155.105 341.91 155.046 341.714 155.046 341.489C155.046 341.235 155.114 341.013 155.249 340.823C155.384 340.632 155.598 340.448 155.89 340.271C155.53 340.122 155.236 339.871 155.008 339.515C154.784 339.16 154.671 338.753 154.671 338.296C154.671 337.535 154.9 336.949 155.357 336.538C155.814 336.123 156.461 335.916 157.299 335.916C157.663 335.916 157.991 335.958 158.283 336.043H160.689ZM155.141 344.168C155.141 344.545 155.3 344.83 155.617 345.025C155.935 345.22 156.389 345.317 156.982 345.317C157.866 345.317 158.52 345.184 158.943 344.917C159.371 344.655 159.584 344.297 159.584 343.844C159.584 343.468 159.468 343.205 159.235 343.057C159.003 342.913 158.565 342.841 157.921 342.841H156.658C156.18 342.841 155.808 342.956 155.541 343.184C155.274 343.413 155.141 343.741 155.141 344.168ZM155.712 338.271C155.712 338.758 155.85 339.126 156.125 339.375C156.4 339.625 156.783 339.75 157.274 339.75C158.302 339.75 158.816 339.251 158.816 338.252C158.816 337.207 158.296 336.684 157.255 336.684C156.76 336.684 156.379 336.817 156.112 337.084C155.846 337.351 155.712 337.746 155.712 338.271Z" fill="#8898AA"/>
<path d="M228.105 340.531C228.105 341.347 227.809 341.984 227.217 342.441C226.624 342.898 225.82 343.127 224.805 343.127C223.704 343.127 222.858 342.985 222.266 342.702V341.661C222.646 341.821 223.061 341.948 223.51 342.042C223.958 342.135 224.403 342.181 224.843 342.181C225.562 342.181 226.104 342.046 226.468 341.775C226.832 341.5 227.014 341.119 227.014 340.632C227.014 340.311 226.948 340.048 226.817 339.845C226.69 339.638 226.474 339.447 226.169 339.274C225.869 339.1 225.41 338.904 224.792 338.684C223.929 338.375 223.311 338.009 222.938 337.585C222.57 337.162 222.386 336.61 222.386 335.929C222.386 335.214 222.655 334.644 223.192 334.221C223.73 333.798 224.441 333.586 225.325 333.586C226.248 333.586 227.096 333.756 227.871 334.094L227.534 335.034C226.768 334.712 226.023 334.551 225.3 334.551C224.729 334.551 224.282 334.674 223.96 334.919C223.639 335.165 223.478 335.506 223.478 335.941C223.478 336.263 223.537 336.528 223.656 336.735C223.774 336.938 223.973 337.126 224.252 337.3C224.536 337.469 224.968 337.657 225.547 337.865C226.521 338.212 227.189 338.584 227.553 338.982C227.921 339.38 228.105 339.896 228.105 340.531ZM232.784 343.127C231.755 343.127 230.943 342.814 230.346 342.188C229.754 341.561 229.458 340.692 229.458 339.579C229.458 338.457 229.733 337.566 230.283 336.906C230.837 336.246 231.58 335.916 232.511 335.916C233.382 335.916 234.072 336.204 234.58 336.779C235.088 337.351 235.342 338.106 235.342 339.045V339.712H230.549C230.57 340.529 230.776 341.149 231.165 341.572C231.559 341.995 232.111 342.207 232.822 342.207C233.571 342.207 234.311 342.05 235.043 341.737V342.676C234.671 342.837 234.318 342.951 233.983 343.019C233.653 343.091 233.253 343.127 232.784 343.127ZM232.498 336.798C231.939 336.798 231.493 336.98 231.159 337.344C230.829 337.708 230.634 338.212 230.575 338.855H234.212C234.212 338.191 234.064 337.683 233.768 337.332C233.471 336.976 233.048 336.798 232.498 336.798ZM240.382 343.127C239.929 343.127 239.514 343.044 239.138 342.879C238.765 342.71 238.452 342.452 238.198 342.105H238.122C238.173 342.511 238.198 342.896 238.198 343.26V346.123H237.145V336.043H238.001L238.147 336.995H238.198C238.469 336.614 238.784 336.339 239.144 336.17C239.504 336.001 239.916 335.916 240.382 335.916C241.304 335.916 242.015 336.231 242.515 336.862C243.018 337.492 243.27 338.377 243.27 339.515C243.27 340.658 243.014 341.546 242.502 342.181C241.994 342.812 241.287 343.127 240.382 343.127ZM240.229 336.811C239.519 336.811 239.004 337.008 238.687 337.401C238.37 337.795 238.207 338.421 238.198 339.28V339.515C238.198 340.493 238.361 341.193 238.687 341.616C239.013 342.035 239.535 342.245 240.255 342.245C240.856 342.245 241.326 342.001 241.664 341.515C242.007 341.028 242.178 340.357 242.178 339.502C242.178 338.635 242.007 337.971 241.664 337.509C241.326 337.044 240.847 336.811 240.229 336.811Z" fill="#8898AA"/>
<path d="M313.409 338.347C313.409 339.833 313.033 341 312.279 341.851C311.53 342.702 310.487 343.127 309.15 343.127C307.783 343.127 306.727 342.71 305.982 341.876C305.242 341.039 304.872 339.858 304.872 338.334C304.872 336.824 305.244 335.654 305.989 334.824C306.734 333.991 307.792 333.574 309.163 333.574C310.496 333.574 311.537 333.997 312.286 334.843C313.035 335.69 313.409 336.858 313.409 338.347ZM306.014 338.347C306.014 339.604 306.281 340.558 306.814 341.21C307.351 341.857 308.13 342.181 309.15 342.181C310.178 342.181 310.955 341.857 311.479 341.21C312.004 340.562 312.267 339.608 312.267 338.347C312.267 337.099 312.004 336.153 311.479 335.51C310.959 334.862 310.187 334.539 309.163 334.539C308.134 334.539 307.351 334.864 306.814 335.516C306.281 336.164 306.014 337.107 306.014 338.347ZM318.106 343.127C317.099 343.127 316.319 342.818 315.764 342.2C315.214 341.578 314.939 340.7 314.939 339.566C314.939 338.402 315.218 337.503 315.777 336.868C316.34 336.233 317.139 335.916 318.176 335.916C318.511 335.916 318.845 335.952 319.179 336.024C319.514 336.096 319.776 336.181 319.966 336.278L319.643 337.173C319.41 337.08 319.156 337.004 318.881 336.944C318.606 336.881 318.362 336.849 318.151 336.849C316.737 336.849 316.031 337.75 316.031 339.553C316.031 340.408 316.202 341.064 316.545 341.521C316.892 341.978 317.404 342.207 318.081 342.207C318.661 342.207 319.255 342.082 319.865 341.832V342.765C319.399 343.006 318.813 343.127 318.106 343.127ZM323.769 342.257C323.955 342.257 324.135 342.245 324.308 342.219C324.482 342.19 324.619 342.16 324.721 342.13V342.937C324.606 342.992 324.437 343.036 324.213 343.07C323.993 343.108 323.794 343.127 323.616 343.127C322.271 343.127 321.598 342.418 321.598 341V336.862H320.601V336.354L321.598 335.916L322.042 334.431H322.651V336.043H324.67V336.862H322.651V340.956C322.651 341.375 322.751 341.697 322.95 341.921C323.149 342.145 323.422 342.257 323.769 342.257Z" fill="#8898AA"/>
<path d="M394.353 343H393.122L388.05 335.211H387.999C388.067 336.125 388.101 336.963 388.101 337.725V343H387.104V333.72H388.323L393.382 341.477H393.433C393.424 341.362 393.405 340.996 393.375 340.378C393.346 339.756 393.335 339.312 393.344 339.045V333.72H394.353V343ZM402.751 339.515C402.751 340.649 402.465 341.536 401.894 342.175C401.323 342.81 400.534 343.127 399.526 343.127C398.904 343.127 398.352 342.981 397.87 342.689C397.387 342.397 397.015 341.978 396.752 341.432C396.49 340.886 396.359 340.247 396.359 339.515C396.359 338.381 396.642 337.499 397.209 336.868C397.777 336.233 398.564 335.916 399.571 335.916C400.544 335.916 401.316 336.24 401.888 336.887C402.463 337.535 402.751 338.411 402.751 339.515ZM397.451 339.515C397.451 340.404 397.628 341.081 397.984 341.546C398.339 342.012 398.862 342.245 399.552 342.245C400.242 342.245 400.764 342.014 401.12 341.553C401.479 341.087 401.659 340.408 401.659 339.515C401.659 338.631 401.479 337.96 401.12 337.503C400.764 337.042 400.237 336.811 399.539 336.811C398.849 336.811 398.329 337.037 397.978 337.49C397.626 337.943 397.451 338.618 397.451 339.515ZM406.128 343L403.487 336.043H404.617L406.115 340.169C406.454 341.134 406.653 341.76 406.712 342.048H406.763C406.809 341.824 406.955 341.36 407.201 340.658C407.45 339.951 408.007 338.413 408.87 336.043H410L407.359 343H406.128Z" fill="#8898AA"/>
<path d="M477.705 338.271C477.705 339.803 477.288 340.975 476.455 341.788C475.625 342.596 474.43 343 472.868 343H470.297V333.72H473.141C474.584 333.72 475.706 334.12 476.505 334.919C477.305 335.719 477.705 336.836 477.705 338.271ZM476.562 338.309C476.562 337.099 476.258 336.187 475.648 335.573C475.043 334.96 474.142 334.653 472.944 334.653H471.376V342.067H472.69C473.977 342.067 474.944 341.752 475.591 341.121C476.239 340.486 476.562 339.549 476.562 338.309ZM482.561 343.127C481.533 343.127 480.72 342.814 480.124 342.188C479.531 341.561 479.235 340.692 479.235 339.579C479.235 338.457 479.51 337.566 480.06 336.906C480.614 336.246 481.357 335.916 482.288 335.916C483.16 335.916 483.85 336.204 484.357 336.779C484.865 337.351 485.119 338.106 485.119 339.045V339.712H480.327C480.348 340.529 480.553 341.149 480.942 341.572C481.336 341.995 481.888 342.207 482.599 342.207C483.348 342.207 484.089 342.05 484.821 341.737V342.676C484.448 342.837 484.095 342.951 483.761 343.019C483.431 343.091 483.031 343.127 482.561 343.127ZM482.275 336.798C481.717 336.798 481.27 336.98 480.936 337.344C480.606 337.708 480.411 338.212 480.352 338.855H483.989C483.989 338.191 483.841 337.683 483.545 337.332C483.249 336.976 482.826 336.798 482.275 336.798ZM489.702 343.127C488.695 343.127 487.914 342.818 487.36 342.2C486.81 341.578 486.535 340.7 486.535 339.566C486.535 338.402 486.814 337.503 487.373 336.868C487.935 336.233 488.735 335.916 489.772 335.916C490.106 335.916 490.441 335.952 490.775 336.024C491.109 336.096 491.372 336.181 491.562 336.278L491.238 337.173C491.006 337.08 490.752 337.004 490.477 336.944C490.201 336.881 489.958 336.849 489.747 336.849C488.333 336.849 487.626 337.75 487.626 339.553C487.626 340.408 487.798 341.064 488.141 341.521C488.488 341.978 489 342.207 489.677 342.207C490.257 342.207 490.851 342.082 491.46 341.832V342.765C490.995 343.006 490.409 343.127 489.702 343.127Z" fill="#8898AA"/>
</svg>
