<svg width="15" height="14" viewBox="0 0 15 14" fill="none" xmlns="http://www.w3.org/2000/svg">
<path d="M10.7812 0.296997L7.73438 1.91418V13.7032L10.7812 12.0861V0.296997Z" fill="#5E72E4"/>
<path d="M7.26562 1.91418L4.21875 0.296997V12.0861L7.26562 13.7032V1.91418Z" fill="#5E72E4"/>
<path d="M3.75 0.296997L0.351562 2.10168C0.28125 2.14856 0.234375 2.21887 0.234375 2.31262V13.5626C0.234375 13.6564 0.28125 13.7267 0.351562 13.7736C0.421875 13.8204 0.515625 13.8204 0.585938 13.7736L3.75 12.0861V0.296997Z" fill="#5E72E4"/>
<path d="M14.6484 2.10168L11.25 0.296997V12.0861L14.4141 13.7736C14.4844 13.8204 14.5781 13.8204 14.6484 13.7736C14.7188 13.7267 14.7656 13.6564 14.7656 13.5626V2.31262C14.7656 2.21887 14.7188 2.14856 14.6484 2.10168Z" fill="#5E72E4"/>
</svg>
