<svg width="13" height="14" viewBox="0 0 13 14" fill="none" xmlns="http://www.w3.org/2000/svg">
<path d="M12.3594 3.01562H0.640625C0.381641 3.01562 0.171875 3.22539 0.171875 3.48438V13.3281C0.171875 13.5871 0.381641 13.7969 0.640625 13.7969H12.3594C12.6184 13.7969 12.8281 13.5871 12.8281 13.3281V3.48438C12.8281 3.22539 12.6184 3.01562 12.3594 3.01562ZM9.07812 7.46875C9.07812 7.59836 8.97313 7.70312 8.84375 7.70312H4.15625C4.02688 7.70312 3.92188 7.59836 3.92188 7.46875V6.29688C3.92188 6.16727 4.02688 6.0625 4.15625 6.0625C4.28562 6.0625 4.39062 6.16727 4.39062 6.29688V7.23438H8.60938V6.29688C8.60938 6.16727 8.71437 6.0625 8.84375 6.0625C8.97313 6.0625 9.07812 6.16727 9.07812 6.29688V7.46875Z" fill="#2DCE89"/>
<path d="M11.1875 1.375H1.8125C1.68312 1.375 1.57812 1.48 1.57812 1.60937V2.54687H11.4219V1.60937C11.4219 1.48 11.3169 1.375 11.1875 1.375Z" fill="#2DCE89"/>
<path d="M9.78125 0.203125H3.21875C3.08938 0.203125 2.98438 0.308125 2.98438 0.4375V0.90625H10.0156V0.4375C10.0156 0.308125 9.91062 0.203125 9.78125 0.203125Z" fill="#2DCE89"/>
</svg>
