<svg width="17" height="16" viewBox="0 0 17 16" fill="none" xmlns="http://www.w3.org/2000/svg">
<path d="M3.34387 8.9375V14.5625H13.6564V8.9375" stroke="#5E72E4" stroke-width="1.2" stroke-miterlimit="10" stroke-linecap="square"/>
<path d="M15.5188 5.65625C15.4611 6.17196 15.2154 6.64833 14.8285 6.99425C14.4417 7.34016 13.941 7.53135 13.422 7.53125C13.107 7.52637 12.7968 7.4525 12.5133 7.31482C12.2299 7.17715 11.98 6.97901 11.7814 6.73437C11.5856 6.98214 11.3363 7.18248 11.0522 7.32046C10.7682 7.45844 10.4566 7.53049 10.1408 7.53125C9.82554 7.52726 9.51506 7.45377 9.23148 7.31603C8.9479 7.17829 8.69819 6.97969 8.50016 6.73437C8.30213 6.97969 8.05242 7.17829 7.76884 7.31603C7.48526 7.45377 7.17478 7.52726 6.85954 7.53125C6.54372 7.53049 6.23216 7.45844 5.94808 7.32046C5.664 7.18248 5.41475 6.98214 5.21891 6.73437C5.01878 6.97731 4.76863 7.17424 4.48551 7.31176C4.20239 7.44927 3.89296 7.52414 3.57829 7.53125C3.05936 7.53135 2.5586 7.34016 2.17178 6.99425C1.78496 6.64833 1.53923 6.17196 1.48157 5.65625L4.28141 1.4375H12.7189L15.5188 5.65625Z" stroke="#5E72E4" stroke-width="1.2" stroke-miterlimit="10" stroke-linecap="square"/>
<path d="M7.09387 14.5625V10.8125H9.90637V14.5625" stroke="#5E72E4" stroke-width="1.2" stroke-miterlimit="10"/>
</svg>
