<svg width="13" height="16" viewBox="0 0 13 16" fill="none" xmlns="http://www.w3.org/2000/svg">
<path d="M12.3596 13.8594H11.4221V2.60937C11.4221 2.35039 11.2124 2.14062 10.9534 2.14062H1.81274V1.20312C1.81274 0.944141 2.02251 0.734375 2.28149 0.734375H12.3596C12.6186 0.734375 12.8284 0.944141 12.8284 1.20312V13.3906C12.8284 13.6496 12.6186 13.8594 12.3596 13.8594Z" fill="#F3A4B5"/>
<path d="M10.4846 2.6095H0.640869C0.381885 2.6095 0.172119 2.81926 0.172119 3.07825V14.797C0.172119 15.056 0.381885 15.2657 0.640869 15.2657H10.4846C10.7436 15.2657 10.9534 15.056 10.9534 14.797V3.07825C10.9534 2.81926 10.7436 2.6095 10.4846 2.6095ZM4.62524 11.9845H2.75024C2.62087 11.9845 2.51587 11.8795 2.51587 11.7501C2.51587 11.6207 2.62087 11.5157 2.75024 11.5157H4.62524C4.75462 11.5157 4.85962 11.6207 4.85962 11.7501C4.85962 11.8795 4.75462 11.9845 4.62524 11.9845ZM8.37524 9.172H2.75024C2.62087 9.172 2.51587 9.067 2.51587 8.93762C2.51587 8.80825 2.62087 8.70325 2.75024 8.70325H8.37524C8.50462 8.70325 8.60962 8.80825 8.60962 8.93762C8.60962 9.067 8.50462 9.172 8.37524 9.172ZM8.37524 6.3595H2.75024C2.62087 6.3595 2.51587 6.2545 2.51587 6.12512C2.51587 5.99575 2.62087 5.89075 2.75024 5.89075H8.37524C8.50462 5.89075 8.60962 5.99575 8.60962 6.12512C8.60962 6.2545 8.50462 6.3595 8.37524 6.3595Z" fill="#F3A4B5"/>
</svg>
