<svg width="15" height="15" viewBox="0 0 15 15" fill="none" xmlns="http://www.w3.org/2000/svg">
<path d="M2.57751 12.6875H4.92126C4.98342 12.6875 5.04304 12.6628 5.08699 12.6189C5.13095 12.5749 5.15564 12.5153 5.15564 12.4531V10.5781C5.15564 10.516 5.13095 10.4564 5.08699 10.4124C5.04304 10.3684 4.98342 10.3438 4.92126 10.3438H2.57751C2.51535 10.3438 2.45574 10.3684 2.41179 10.4124C2.36783 10.4564 2.34314 10.516 2.34314 10.5781V12.4531C2.34314 12.5153 2.36783 12.5749 2.41179 12.6189C2.45574 12.6628 2.51535 12.6875 2.57751 12.6875Z" fill="#F5365C"/>
<path d="M2.57751 9.40625H4.92126C4.98342 9.40625 5.04304 9.38156 5.08699 9.3376C5.13095 9.29365 5.15564 9.23403 5.15564 9.17187V7.29687C5.15564 7.23471 5.13095 7.1751 5.08699 7.13115C5.04304 7.08719 4.98342 7.0625 4.92126 7.0625H2.57751C2.51535 7.0625 2.45574 7.08719 2.41179 7.13115C2.36783 7.1751 2.34314 7.23471 2.34314 7.29687V9.17187C2.34314 9.23403 2.36783 9.29365 2.41179 9.3376C2.45574 9.38156 2.51535 9.40625 2.57751 9.40625Z" fill="#F5365C"/>
<path d="M6.32812 12.6875H8.67187C8.73403 12.6875 8.79365 12.6628 8.8376 12.6189C8.88156 12.5749 8.90625 12.5153 8.90625 12.4531V10.5781C8.90625 10.516 8.88156 10.4564 8.8376 10.4124C8.79365 10.3684 8.73403 10.3438 8.67187 10.3438H6.32812C6.26596 10.3438 6.20635 10.3684 6.1624 10.4124C6.11844 10.4564 6.09375 10.516 6.09375 10.5781V12.4531C6.09375 12.5153 6.11844 12.5749 6.1624 12.6189C6.20635 12.6628 6.26596 12.6875 6.32812 12.6875Z" fill="#F5365C"/>
<path d="M6.32812 9.40625H8.67187C8.73403 9.40625 8.79365 9.38156 8.8376 9.3376C8.88156 9.29365 8.90625 9.23403 8.90625 9.17187V7.29687C8.90625 7.23471 8.88156 7.1751 8.8376 7.13115C8.79365 7.08719 8.73403 7.0625 8.67187 7.0625H6.32812C6.26596 7.0625 6.20635 7.08719 6.1624 7.13115C6.11844 7.1751 6.09375 7.23471 6.09375 7.29687V9.17187C6.09375 9.23403 6.11844 9.29365 6.1624 9.3376C6.20635 9.38156 6.26596 9.40625 6.32812 9.40625Z" fill="#F5365C"/>
<path d="M10.0781 9.40625H12.4219C12.484 9.40625 12.5436 9.38156 12.5876 9.3376C12.6316 9.29365 12.6562 9.23403 12.6562 9.17187V7.29687C12.6562 7.23471 12.6316 7.1751 12.5876 7.13115C12.5436 7.08719 12.484 7.0625 12.4219 7.0625H10.0781C10.016 7.0625 9.95635 7.08719 9.9124 7.13115C9.86844 7.1751 9.84375 7.23471 9.84375 7.29687V9.17187C9.84375 9.23403 9.86844 9.29365 9.9124 9.3376C9.95635 9.38156 10.016 9.40625 10.0781 9.40625Z" fill="#F5365C"/>
<path d="M3.75 4.01562C3.68784 4.01562 3.62823 3.99093 3.58427 3.94698C3.54032 3.90302 3.51562 3.84341 3.51562 3.78125V0.96875C3.51562 0.90659 3.54032 0.846976 3.58427 0.803022C3.62823 0.759068 3.68784 0.734375 3.75 0.734375C3.81216 0.734375 3.87177 0.759068 3.91573 0.803022C3.95968 0.846976 3.98437 0.90659 3.98437 0.96875V3.78125C3.98437 3.84341 3.95968 3.90302 3.91573 3.94698C3.87177 3.99093 3.81216 4.01562 3.75 4.01562Z" fill="#F5365C"/>
<path d="M13.8281 2.14062H11.9531V3.78125C11.9531 3.96773 11.879 4.14657 11.7472 4.27843C11.6153 4.4103 11.4365 4.48437 11.25 4.48437C11.0635 4.48437 10.8847 4.4103 10.7528 4.27843C10.621 4.14657 10.5469 3.96773 10.5469 3.78125V2.14062H4.45312V3.78125C4.45312 3.96773 4.37905 4.14657 4.24718 4.27843C4.11532 4.4103 3.93648 4.48437 3.75 4.48437C3.56352 4.48437 3.38468 4.4103 3.25282 4.27843C3.12095 4.14657 3.04688 3.96773 3.04688 3.78125V2.14062H1.17188C0.985395 2.14062 0.806552 2.2147 0.674691 2.34657C0.542829 2.47843 0.46875 2.65727 0.46875 2.84375V13.625C0.46875 13.8115 0.542829 13.9903 0.674691 14.1222C0.806552 14.254 0.985395 14.3281 1.17188 14.3281H13.8281C14.0146 14.3281 14.1934 14.254 14.3253 14.1222C14.4572 13.9903 14.5312 13.8115 14.5312 13.625V2.84375C14.5312 2.65727 14.4572 2.47843 14.3253 2.34657C14.1934 2.2147 14.0146 2.14062 13.8281 2.14062V2.14062ZM14.0625 13.625C14.0625 13.6872 14.0378 13.7468 13.9939 13.7907C13.9499 13.8347 13.8903 13.8594 13.8281 13.8594H1.17188C1.10971 13.8594 1.0501 13.8347 1.00615 13.7907C0.962193 13.7468 0.9375 13.6872 0.9375 13.625V5.89062H14.0625V13.625Z" fill="#F5365C"/>
<path d="M11.25 4.01562C11.1878 4.01562 11.1282 3.99093 11.0843 3.94698C11.0403 3.90302 11.0156 3.84341 11.0156 3.78125V0.96875C11.0156 0.90659 11.0403 0.846976 11.0843 0.803022C11.1282 0.759068 11.1878 0.734375 11.25 0.734375C11.3122 0.734375 11.3718 0.759068 11.4157 0.803022C11.4597 0.846976 11.4844 0.90659 11.4844 0.96875V3.78125C11.4844 3.84341 11.4597 3.90302 11.4157 3.94698C11.3718 3.99093 11.3122 4.01562 11.25 4.01562Z" fill="#F5365C"/>
</svg>
