<svg width="15" height="14" viewBox="0 0 15 14" fill="none" xmlns="http://www.w3.org/2000/svg">
<path d="M11.0156 0.437506H3.97219C3.57287 0.438306 3.17762 0.51775 2.809 0.671302C2.44038 0.824855 2.10562 1.04951 1.82382 1.33244C1.54202 1.61537 1.31871 1.95103 1.16664 2.32026C1.01456 2.68949 0.936705 3.08506 0.937506 3.48438V3.49657C0.938306 3.89589 1.01775 4.29114 1.1713 4.65976C1.32485 5.02838 1.54951 5.36315 1.83244 5.64494C2.11537 5.92674 2.45103 6.15005 2.82026 6.30212C3.18949 6.4542 3.58506 6.53206 3.98438 6.53126H11.0278C11.4271 6.53046 11.8224 6.45101 12.191 6.29746C12.5596 6.14391 12.8944 5.91925 13.1762 5.63632C13.458 5.3534 13.6813 5.01773 13.8334 4.6485C13.9854 4.27927 14.0633 3.8837 14.0625 3.48438V3.47219C14.0617 3.07287 13.9823 2.67762 13.8287 2.309C13.6752 1.94038 13.4505 1.60562 13.1676 1.32382C12.8846 1.04202 12.549 0.818712 12.1798 0.666638C11.8105 0.514564 11.415 0.436705 11.0156 0.437506ZM3.98438 5.82813C3.52083 5.82813 3.06769 5.69067 2.68226 5.43314C2.29684 5.1756 1.99643 4.80956 1.81904 4.3813C1.64165 3.95303 1.59523 3.48178 1.68567 3.02714C1.7761 2.5725 1.99932 2.15488 2.3271 1.8271C2.65488 1.49932 3.07249 1.2761 3.52714 1.18567C3.98178 1.09523 4.45303 1.14165 4.8813 1.31904C5.30956 1.49643 5.6756 1.79684 5.93314 2.18226C6.19067 2.56769 6.32813 3.02083 6.32813 3.48438C6.32813 4.10598 6.0812 4.70212 5.64166 5.14166C5.20212 5.5812 4.60598 5.82813 3.98438 5.82813Z" fill="#11CDEF"/>
<path d="M11.0278 7.46888H3.98438C3.58506 7.46808 3.18949 7.54594 2.82026 7.69801C2.45103 7.85008 2.11537 8.07339 1.83244 8.35519C1.54951 8.63699 1.32485 8.97175 1.1713 9.34037C1.01775 9.70899 0.938306 10.1042 0.937506 10.5036V10.5158C0.936705 10.9151 1.01456 11.3106 1.16664 11.6799C1.31871 12.0491 1.54202 12.3848 1.82382 12.6677C2.10562 12.9506 2.44038 13.1753 2.809 13.3288C3.17762 13.4824 3.57287 13.5618 3.97219 13.5626H11.0156C11.415 13.5634 11.8105 13.4856 12.1798 13.3335C12.549 13.1814 12.8846 12.9581 13.1676 12.6763C13.4505 12.3945 13.6752 12.0598 13.8287 11.6911C13.9823 11.3225 14.0617 10.9273 14.0625 10.5279V10.5158C14.0633 10.1164 13.9854 9.72086 13.8334 9.35163C13.6813 8.9824 13.458 8.64674 13.1762 8.36381C12.8944 8.08088 12.5596 7.85623 12.191 7.70267C11.8224 7.54912 11.4271 7.46968 11.0278 7.46888ZM11.0156 12.8595C10.5521 12.8595 10.0989 12.722 9.71351 12.4645C9.32808 12.207 9.02768 11.8409 8.85029 11.4127C8.67289 10.9844 8.62648 10.5132 8.71692 10.0585C8.80735 9.60387 9.03057 9.18625 9.35835 8.85847C9.68613 8.53069 10.1037 8.30747 10.5584 8.21704C11.013 8.1266 11.4843 8.17302 11.9125 8.35041C12.3408 8.5278 12.7069 8.82821 12.9644 9.21364C13.2219 9.59906 13.3594 10.0522 13.3594 10.5158C13.3594 11.1374 13.1125 11.7335 12.6729 12.173C12.2334 12.6126 11.6372 12.8595 11.0156 12.8595Z" fill="#11CDEF"/>
</svg>
