<svg width="15" height="16" viewBox="0 0 15 16" fill="none" xmlns="http://www.w3.org/2000/svg">
<path d="M14.0623 4.5625H11.5623V11.4375C11.5623 11.7828 11.2826 12.0625 10.9373 12.0625H4.06226V14.5625C4.06226 14.9078 4.34194 15.1875 4.68726 15.1875H14.0623C14.4076 15.1875 14.6873 14.9078 14.6873 14.5625V5.1875C14.6873 4.84219 14.4076 4.5625 14.0623 4.5625Z" fill="#FB6340"/>
<path d="M10.3119 11.4374H0.93689C0.591577 11.4374 0.31189 11.1577 0.31189 10.8124V1.43738C0.31189 1.09207 0.591577 0.812378 0.93689 0.812378H10.3119C10.6572 0.812378 10.9369 1.09207 10.9369 1.43738V10.8124C10.9369 11.1577 10.6572 11.4374 10.3119 11.4374Z" fill="#FB6340"/>
</svg>
