<svg width="16" height="16" viewBox="0 0 16 16" fill="none" xmlns="http://www.w3.org/2000/svg">
<path d="M14.9998 4.33325H12.3331V11.6666C12.3331 12.0349 12.0348 12.3333 11.6665 12.3333H4.33313V14.9999C4.33313 15.3683 4.63146 15.6666 4.9998 15.6666H14.9998C15.3681 15.6666 15.6665 15.3683 15.6665 14.9999V4.99992C15.6665 4.63159 15.3681 4.33325 14.9998 4.33325Z" fill="white" fill-opacity="0.95"/>
<path d="M10.9993 11.6665H0.999308C0.630975 11.6665 0.332642 11.3681 0.332642 10.9998V0.999797C0.332642 0.631463 0.630975 0.33313 0.999308 0.33313H10.9993C11.3676 0.33313 11.666 0.631463 11.666 0.999797V10.9998C11.666 11.3681 11.3676 11.6665 10.9993 11.6665Z" fill="white" fill-opacity="0.95"/>
</svg>
