<svg width="48" height="48" viewBox="0 0 48 48" fill="none" xmlns="http://www.w3.org/2000/svg">
<circle cx="24" cy="24" r="24" fill="url(#paint0_linear_29_1119)"/>
<path d="M29.7685 22.9453C29.1612 22.8194 28.794 23.0458 28.5902 23.2645C28.5048 23.3563 28.3562 23.3217 28.3238 23.2005C28.173 22.6367 27.7051 22.1866 27.1071 22.1316C26.4554 22.0717 26.0221 22.3994 25.7845 22.6618C25.7001 22.755 25.5478 22.7204 25.5171 22.5985C25.373 22.0246 24.9005 21.5644 24.2946 21.5066C23.7085 21.4507 23.1874 21.7549 22.9267 22.2238C22.8788 22.3099 22.7502 22.2801 22.7502 22.1816V16.0917C22.7502 15.3572 22.2133 14.7013 21.4821 14.6316C20.6434 14.5516 19.9377 15.209 19.9377 16.0312V24.9375C19.9377 25.1102 19.798 25.25 19.6252 25.25C19.4525 25.25 19.3127 25.1102 19.3127 24.9375V23.0625H18.3752C17.6849 23.0625 17.1252 23.6221 17.1252 24.3125V28.0625C17.1252 30.0417 19.3127 31.4609 19.3127 33.0625H29.0002C29.0002 33.0625 30.8752 29.2344 30.8752 24.3125C30.8752 23.4922 30.3473 23.0653 29.7685 22.9453Z" fill="white"/>
<defs>
<linearGradient id="paint0_linear_29_1119" x1="0" y1="24" x2="48" y2="24" gradientUnits="userSpaceOnUse">
<stop stop-color="#F5365C"/>
<stop offset="1" stop-color="#F56636"/>
</linearGradient>
</defs>
</svg>
